<?xml version="1.0" encoding="UTF-8"?>
<svg id="Ebene_1" data-name="Ebene 1" xmlns="http://www.w3.org/2000/svg" viewBox="0 0 4000 1370.94">
  <path d="M0,330.96c0,182.07,150.6,330.96,337.76,330.96,51.91,0,103.8-10.23,148.04-30.63v-184.63c-30.63,33.17-81.68,58.71-144.63,58.71-101.25,0-174.42-74.02-174.42-174.41s73.18-174.41,174.42-174.41c62.95,0,114,25.54,144.63,58.68V30.63C441.56,11.06,389.67,0,337.76,0,150.6,0,0,148.9,0,330.96Z"/>
  <path d="M823.5,661.92c184.62,0,331.81-148.9,331.81-330.96S1008.12,0,823.5,0s-331.81,148.9-331.81,330.96,148.04,330.96,331.81,330.96ZM823.5,154.84c91.03,0,165.05,72.33,165.05,176.12s-74.02,176.12-165.05,176.12-165.05-72.33-165.05-176.12,74.02-176.12,165.05-176.12Z"/>
  <polygon points="2468.76 10.23 2343.71 374.36 2218.63 10.23 2051.03 10.23 1943.87 491.13 1836.72 10.23 1671.66 10.23 1546.6 374.36 1421.53 10.23 1253.93 10.23 1110.99 651.7 1275.19 651.7 1361.12 264.6 1492.15 651.7 1595.95 651.7 1726.96 264.6 1812.9 651.7 1908.1 651.7 1979.65 651.7 2072.29 651.7 2158.21 264.6 2289.25 651.7 2393.04 651.7 2524.06 264.6 2609.99 651.7 2776.74 651.7 2633.82 10.23 2468.76 10.23"/>
  <path d="M3064.22,0c-183.78,0-331.82,148.9-331.82,330.96s148.04,330.96,331.82,330.96,331.81-148.9,331.81-330.96S3248.84,0,3064.22,0ZM3064.22,507.08c-91.03,0-165.05-72.33-165.05-176.12s74.02-176.12,165.05-176.12,165.05,72.33,165.05,176.12-74.02,176.12-165.05,176.12Z"/>
  <polygon points="3840.06 10.23 3840.06 384.56 3567.81 10.23 3416.37 10.23 3416.37 651.7 3576.31 651.7 3576.31 271.4 3857.93 651.7 4000 651.7 4000 10.23 3840.06 10.23"/>
  <path d="M0,1039.98c0,182.07,150.6,330.96,337.76,330.96,51.91,0,103.8-10.23,148.04-30.63v-184.63c-30.63,33.17-81.68,58.71-144.63,58.71-101.25,0-174.42-74.02-174.42-174.41s73.18-174.41,174.42-174.41c62.95,0,114,25.54,144.63,58.68v-184.61c-44.24-19.57-96.13-30.63-148.04-30.63C150.6,709.02,0,857.92,0,1039.98Z"/>
  <path d="M756.29,719.25l-262.9,641.47h171.85l46.79-119.93h250.14l46.79,119.93h176.11l-262.9-641.47h-165.9ZM764.81,1104.63l72.31-186.32,72.32,186.32h-144.63Z"/>
  <path d="M1667.43,719.25h-166.75v383.7c0,80.82-40.85,120.81-102.96,120.81s-102.95-39.99-102.95-120.81v-383.7h-166.75v382.84c0,171.01,116.56,268.85,269.7,268.85s269.71-97.85,269.71-268.85v-382.84Z"/>
  <path d="M1862.82,901.29c0-32.31,25.54-52.74,58.71-52.74,39.99,0,65.51,31.48,73.16,62.96l156.55-53.59c-28.93-93.59-115.7-148.9-222.9-148.9-138.68,0-228.87,96.99-228.87,204.2,0,235.66,301.19,145.47,301.19,250.14,0,39.97-30.63,66.34-77.42,66.34s-85.93-35.71-98.7-86.79l-155.7,51.91c26.37,106.36,127.61,176.12,247.59,176.12,137.83,0,250.13-88.5,250.13-216.09,0-240.77-303.74-155.7-303.74-253.57Z"/>
  <polygon points="2188.61 1360.72 2589.34 1360.72 2589.34 1223.76 2351.97 1223.76 2351.97 1101.23 2580.84 1101.23 2580.84 964.25 2351.97 964.25 2351.97 856.2 2589.34 856.2 2589.34 719.25 2188.61 719.25 2188.61 1360.72"/>
</svg>